<?xml version="1.0" encoding="utf-8"?>
<!-- Generator: Adobe Illustrator 16.0.4, SVG Export Plug-In . SVG Version: 6.00 Build 0)  -->
<!DOCTYPE svg PUBLIC "-//W3C//DTD SVG 1.1//EN" "http://www.w3.org/Graphics/SVG/1.1/DTD/svg11.dtd">
<svg version="1.1" id="Layer_1" xmlns="http://www.w3.org/2000/svg" xmlns:xlink="http://www.w3.org/1999/xlink" x="0px" y="0px"
	 width="432px" height="139px" viewBox="0 0 432 139" enable-background="new 0 0 432 139"
	 xml:space="preserve">
<polygon fill="#D71920" points="411.17,70.993 431.69,82.023 0,137.903 25.16,1.454 36.55,40.474 51.29,1.454 57.35,33.054 
	74.52,1.454 78.37,32.094 100.9,1.454 112.8,18.963 129.34,1.454 166.68,13.244 166.84,13.184 176.87,4.724 203.45,10.744 
	218.15,1.454 224.96,12.324 244.521,1.454 251.75,15.463 280.57,1.454 290.19,12.434 315.55,1.454 343.101,8.733 362.37,1.454 
	363.98,13.594 399.51,1.454 431.69,12.824 411.351,20.904 411.271,42.124 425.76,45.733 411.24,50.884 "/>
<path fill="#FFFFFF" d="M73.554,82.022H62.179l-6.651-47.904l-7.38,47.904h-11.25L25.16,1.452h12.707l5.806,53.833l7.621-53.833
	h9.919l6.775,53.833l6.534-53.833h11.855L73.554,82.022z M115.42,82.022l-2.058-15.726H101.63l-2.423,15.726H87.473l13.429-80.571
	h14.155l13.426,80.571H115.42z M107.918,22.622l-4.717,32.907h8.711L107.918,22.622z M154.625,13.187v68.835h-12.828V13.187h-12.459
	V1.452h37.506v11.735H154.625z M190.194,83.475c-11.733,0-19.476-8.225-19.476-19.237V19.236C170.718,8.227,178.461,0,190.194,0
	c11.857,0,18.27,7.743,18.27,18.512v11.612H197.09V18.266c0-3.87-2.177-6.651-6.653-6.651c-4.478,0-6.657,2.782-6.657,6.533v47.178
	c0,3.752,2.179,6.537,6.657,6.537c4.476,0,6.653-2.785,6.653-6.659V53.229h11.373v11.735
	C208.463,75.73,202.051,83.475,190.194,83.475z M244.521,1.454v34.96H230.97V1.454H218.15v80.57h12.819v-33.88h13.551v33.88h12.819
	V1.454H244.521z M294.73,1.454h-14.16l-13.42,80.57h11.729l2.42-15.73h11.74l2.05,15.73h13.07L294.73,1.454z M282.88,55.523
	l4.71-32.9l4,32.9H282.88z M343.851,40.894c5.689-1.7,7.989-6.05,7.989-12.1v-11.73c0-10.89-6.54-15.61-15.489-15.61H315.55v80.57
	h21.04c8.84,0,15.49-4.6,15.49-15.61v-13.43C352.08,47.063,349.78,42.824,343.851,40.894z M328.49,12.463h6.53
	c3.029,0,4.47,1.81,4.47,5.2v13.19c0,3.75-1.811,5.56-4.95,5.56h-6.05V12.463z M339.62,65.813c0,3.39-1.33,5.2-4.36,5.2h-6.77v-24.8
	h6.17c3.14,0,4.96,2.06,4.96,5.69V65.813z M375.19,70.414V1.454h-12.82v80.57h31.33V70.414H375.19z M431.69,12.824V1.454H399.51
	v80.57h32.181V70.294H412.34V45.733h13.42v-10.65h-13.42v-22.26H431.69z"/>
</svg>
